<svg height="512pt" viewBox="-45 0 512 512.03773" width="512pt" xmlns="http://www.w3.org/2000/svg"><path d="m414.742188 238.382812c-53.40625 53.40625-61.4375 135.855469-116.523438 188.378907-4.589844 4.195312-8.8125 8.769531-12.621094 13.683593-11.125 15.007813-12.09375 32.75-12.09375 50.671876v3.265624c-.03125 9.738282-7.917968 17.625-17.65625 17.65625h-141.242187c-9.738281-.03125-17.625-7.917968-17.65625-17.65625v-44.757812c.054687-3.511719-.960938-6.960938-2.910157-9.886719-6.023437-8.621093-10.945312-17.964843-14.65625-27.804687l-77.683593-225.28125c-4.894531-13.402344 1.226562-28.328125 14.125-34.425782 6.765625-2.90625 14.4375-2.863281 21.167969.117188 6.734374 2.984375 11.921874 8.632812 14.320312 15.59375l31.515625 92.335938c1.375 4.457031 5.980469 7.070312 10.511719 5.972656s7.425781-5.53125 6.613281-10.121094l-28.867187-191.027344c-.175782-1.347656-.265626-2.703125-.265626-4.0625.210938-13.710937 10.855469-24.992187 24.53125-26.003906 13.675782-1.007812 25.859376 8.589844 28.082032 22.121094l26.570312 172.933594c.65625 4.601562 4.765625 7.90625 9.402344 7.558593 4.636719-.347656 8.207031-4.234375 8.164062-8.882812v-202.242188c-.007812-7.273437 2.972657-14.234375 8.25-19.242187 5.277344-5.007813 12.382813-7.628906 19.644532-7.2382815 14.378906 1.2890625 25.320312 13.4609375 25.070312 27.8945315v200.207031c-.027344 1.128906.804688 2.09375 1.925782 2.230469 1.117187.136718 2.15625-.597656 2.402343-1.699219l40.519531-173.992187c1.859376-9.503907 8.761719-17.230469 17.996094-20.15625 9.230469-2.921876 19.324219-.570313 26.316406 6.128906 6.988282 6.703125 9.765626 16.683594 7.238282 26.035156l-42.195313 180.523438c-6.089843 32.132812 1.234375 44.753906 7.945313 49.699218 2.433594 1.914063 5.386718 3.050782 8.472656 3.265625 14.421875-8.78125 26.53125-20.890625 35.3125-35.308593 14.386719-21.472657 32.542969-40.164063 53.582031-55.175782 4.980469-3.695312 10.867188-5.980468 17.039063-6.621094 17.652344 0 35.308594 17.65625 17.652344 35.3125zm0 0" fill="#fdd7ad"/><path d="m238.191406 467.898438h-8.828125c-4.875 0-8.828125-3.949219-8.828125-8.828126 0-4.875 3.953125-8.824218 8.828125-8.824218h8.828125c4.875 0 8.828125 3.949218 8.828125 8.824218 0 4.878907-3.953125 8.828126-8.828125 8.828126zm0 0" fill="#fee7ce"/><path d="m194.054688 467.898438h-61.792969c-4.875 0-8.828125-3.949219-8.828125-8.828126 0-4.875 3.953125-8.824218 8.828125-8.824218h61.792969c4.875 0 8.828124 3.949218 8.828124 8.824218 0 4.878907-3.953124 8.828126-8.828124 8.828126zm0 0" fill="#fee7ce"/><path d="m322.230469 270.957031c-.011719.09375-.039063.183594-.089844.265625-2.058594 12.648438-8.722656 24.085938-18.710937 32.113282-11.453126 8.429687-24.4375 14.550781-38.226563 18.027343-9.378906 2.324219-17.539063 8.089844-22.863281 16.152344-3.148438 4.8125-4.890625 10.40625-5.03125 16.15625 0 4.875-3.953125 8.828125-8.828125 8.828125s-8.828125-3.953125-8.828125-8.828125c.121094-9.097656 2.8125-17.972656 7.769531-25.601563 11.035156-17.476562 33.105469-19.242187 51.199219-24.453124 3.660156-1.023438 7.257812-2.261719 10.769531-3.707032 3.082031-1.238281 6.0625-2.714844 8.917969-4.414062 9.136718-6.957032 17.199218-15.226563 23.921875-24.539063zm0 0" fill="#cbb292"/></svg>