<svg viewBox="0 0 150 150.11" xmlns="http://www.w3.org/2000/svg"><defs><style>.cls-1{isolation:isolate;}.cls-2{fill:#f29100;}.cls-3{fill:#3c3c3b;}.cls-4{fill:#f8b133;}.cls-5{fill:#ececec;mix-blend-mode:multiply;}</style></defs><g class="cls-1"><g data-name="Layer 2" id="Layer_2"><g data-name="Layer 1" id="Layer_1-2"><path d="M92.34.9A56.77,56.77,0,1,0,149.1,57.66,56.77,56.77,0,0,0,92.34.9Zm12.72,69.49H79.61V44.94h25.45Z" class="cls-2"></path><path d="M92.34,115.33A57.66,57.66,0,0,1,51.56,16.89a57.66,57.66,0,1,1,81.55,81.55A57.28,57.28,0,0,1,92.34,115.33Zm0-113.53A55.87,55.87,0,0,0,52.83,97.17a55.87,55.87,0,0,0,79-79A55.5,55.5,0,0,0,92.34,1.8Zm12.72,69.49H79.61a.9.9,0,0,1-.9-.9V44.94a.9.9,0,0,1,.9-.9h25.45a.9.9,0,0,1,.9.9V70.39A.9.9,0,0,1,105.06,71.29Zm-24.55-1.8h23.65V45.83H80.51Z" class="cls-3"></path><path d="M125.76,24.24A47.26,47.26,0,1,0,58.92,91.08a47.26,47.26,0,0,0,66.84-66.84Zm-20.7,46.15H79.61V44.94h25.45Z" class="cls-4"></path><path d="M92.34,105.83A48.16,48.16,0,0,1,58.28,23.61a48.15,48.15,0,0,1,68.11,0h0a48.17,48.17,0,0,1-34,82.22Zm0-94.53A46.36,46.36,0,0,0,59.55,90.45a46.36,46.36,0,1,0,65.57-65.57h0A46.05,46.05,0,0,0,92.34,11.3Zm12.72,60H79.61a.9.9,0,0,1-.9-.9V44.94a.9.9,0,0,1,.9-.9h25.45a.9.9,0,0,1,.9.9V70.39A.9.9,0,0,1,105.06,71.29Zm-24.55-1.8h23.65V45.83H80.51Z" class="cls-3"></path><path d="M72.62,38V77.38h39.43V38Zm31,31H81.05V46.37h22.58Z" class="cls-2"></path><path d="M112.05,78.28H72.62a.9.9,0,0,1-.9-.9V38a.9.9,0,0,1,.9-.9h39.43a.9.9,0,0,1,.9.9V77.38A.9.9,0,0,1,112.05,78.28Zm-38.53-1.8h37.63V38.85H73.52Zm30.11-6.63H81.05a.9.9,0,0,1-.9-.9V46.37a.89.89,0,0,1,.9-.89h22.58a.89.89,0,0,1,.89.89V69A.89.89,0,0,1,103.63,69.85ZM82,68.05h20.78V47.27H82Z" class="cls-3"></path><path d="M51.28,57.66A56.78,56.78,0,0,1,100.19,1.44,58.14,58.14,0,0,0,92.34.9a56.77,56.77,0,1,0,0,113.53,58.14,58.14,0,0,0,7.85-.54A56.78,56.78,0,0,1,51.28,57.66Z" class="cls-5"></path><path d="M52.31,97.88c10.17,9.63,23.91,17.55,39,17.55l1.28,0H93l.93,0,.67,0,.78,0,.75-.06.33,0,.63-.06a64.89,64.89,0,0,0,5.7-26.68A65.31,65.31,0,0,0,100.14,70H80.05V47.37h8.16A65,65,0,0,0,46.43,23.94a56.85,56.85,0,0,0-9.8,49.92C36.33,73.78,42.29,89,52.31,97.88Z" class="cls-5"></path><path d="M57.66,35.68a56.77,56.77,0,1,0,56.77,56.76A56.76,56.76,0,0,0,57.66,35.68Zm12.73,69.49H44.94V79.71H70.39Z" class="cls-2"></path><path d="M57.66,150.11a57.67,57.67,0,1,1,40.78-16.89A57.28,57.28,0,0,1,57.66,150.11Zm0-113.53A55.86,55.86,0,1,0,97.17,52.94,55.5,55.5,0,0,0,57.66,36.58Zm12.73,69.49H44.94a.9.9,0,0,1-.9-.9V79.71a.89.89,0,0,1,.9-.89H70.39a.89.89,0,0,1,.9.89v25.46A.9.9,0,0,1,70.39,106.07Zm-24.55-1.8H69.49V80.61H45.84Z" class="cls-3"></path><path d="M91.08,59a47.25,47.25,0,1,0,13.85,33.42A46.92,46.92,0,0,0,91.08,59ZM70.39,105.17H44.94V79.71H70.39Z" class="cls-4"></path><path d="M57.66,140.61A48.17,48.17,0,1,1,91.72,126.5,47.82,47.82,0,0,1,57.66,140.61Zm0-94.53A46.37,46.37,0,1,0,90.45,59.66,46.05,46.05,0,0,0,57.66,46.08Zm12.73,60H44.94a.9.9,0,0,1-.9-.9V79.71a.89.89,0,0,1,.9-.89H70.39a.89.89,0,0,1,.9.89v25.46A.9.9,0,0,1,70.39,106.07Zm-24.55-1.8H69.49V80.61H45.84Z" class="cls-3"></path><path d="M38,72.73v39.43H77.38V72.73Zm31,31H46.37V81.15H69Z" class="cls-2"></path><path d="M77.38,113.06H38a.9.9,0,0,1-.9-.9V72.73a.9.9,0,0,1,.9-.9H77.38a.9.9,0,0,1,.9.9v39.43A.9.9,0,0,1,77.38,113.06Zm-38.53-1.8H76.48V73.62H38.85ZM69,104.63H46.37a.89.89,0,0,1-.89-.9V81.15a.9.9,0,0,1,.89-.9H69a.9.9,0,0,1,.9.9v22.58A.9.9,0,0,1,69,104.63Zm-21.68-1.8H68.05V82.05H47.27Z" class="cls-3"></path><path d="M16.61,92.44A56.77,56.77,0,0,1,65.52,36.22a58.18,58.18,0,0,0-7.86-.54,56.77,56.77,0,1,0,7.86,113A56.76,56.76,0,0,1,16.61,92.44Z" class="cls-5"></path></g></g></g></svg>