<?xml version="1.0" encoding="utf-8"?>
<!-- Generator: Adobe Illustrator 25.2.1, SVG Export Plug-In . SVG Version: 6.00 Build 0)  -->
<svg version="1.1" id="Layer_1" xmlns="http://www.w3.org/2000/svg" xmlns:xlink="http://www.w3.org/1999/xlink" x="0px" y="0px"
	 viewBox="0 0 3240 2160" style="enable-background:new 0 0 3240 2160;" xml:space="preserve">
<style type="text/css">
	.st0{fill:#B2292E;}
	.st1{fill:#76236C;}
	.st2{fill:#FF6B00;}
	.st3{fill:#009845;}
	.st4{fill-rule:evenodd;clip-rule:evenodd;fill:#323E48;}
	.st5{fill:#323E48;}
	.st6{fill:none;stroke:#4E4B4A;stroke-width:4.8445;stroke-miterlimit:3.8637;}
</style>
<polygon class="st0" points="1608.2,1414.1 1608.2,1050.7 1691.4,1050.7 1691.4,1414.1 1608.2,1414.1 "/>
<path class="st0" d="M1770.9,1414.1v-363.4h175.2c44.1,0,76.1,3.3,96,9.8c20,6.5,36,18.1,48,34.8c12,16.7,18,35.8,18,57.3
	c0,27.3-9.1,49.8-27.3,67.6c-18.2,17.8-45.4,29-81.5,33.6c18,9.3,32.8,19.4,44.5,30.5c11.7,11.1,27.5,30.7,47.3,59l50.3,70.9h-99.5
	l-60-79.2c-21.4-28.2-36-45.9-43.9-53.3c-7.9-7.3-16.2-12.4-25.1-15.1c-8.8-2.7-22.8-4.1-42-4.1h-16.9v151.6H1770.9L1770.9,1414.1z
	 M1854.1,1204.4h61.7c40,0,65-1.5,74.9-4.5c9.9-3,17.7-8.1,23.4-15.4c5.6-7.3,8.4-16.3,8.4-27.2c0-12.2-3.7-22.1-11.1-29.6
	c-7.4-7.5-17.9-12.3-31.4-14.2c-6.8-0.8-27-1.2-60.8-1.2h-65.1V1204.4L1854.1,1204.4z"/>
<path class="st0" d="M2449.9,1280.3l80.8,22.7c-12.4,39.7-33,69.1-61.7,88.4c-28.8,19.2-65.3,28.9-109.6,28.9
	c-54.8,0-99.8-16.5-135-49.4c-35.3-33-52.9-78-52.9-135.2c0-60.5,17.7-107.4,53.2-140.9c35.5-33.5,82.1-50.2,139.9-50.2
	c50.5,0,91.4,13.1,123,39.4c18.8,15.5,32.8,37.8,42.2,66.9l-82.5,17.2c-4.9-18.8-15.1-33.6-30.6-44.5
	c-15.5-10.9-34.3-16.3-56.5-16.3c-30.6,0-55.4,9.7-74.5,29c-19.1,19.4-28.6,50.7-28.6,94c0,46,9.4,78.7,28.2,98.3
	c18.8,19.5,43.2,29.3,73.2,29.3c22.1,0,41.2-6.2,57.2-18.7C2431.5,1326.6,2443,1307,2449.9,1280.3L2449.9,1280.3z"/>
<path class="st0" d="M2865.7,1280.3l80.8,22.7c-12.4,39.7-33,69.1-61.7,88.4c-28.8,19.2-65.3,28.9-109.6,28.9
	c-54.8,0-99.8-16.5-135-49.4c-35.3-33-52.9-78-52.9-135.2c0-60.5,17.7-107.4,53.2-140.9c35.5-33.5,82.1-50.2,139.8-50.2
	c50.5,0,91.4,13.1,123,39.4c18.8,15.5,32.8,37.8,42.2,66.9l-82.5,17.2c-4.9-18.8-15.1-33.6-30.6-44.5
	c-15.5-10.9-34.3-16.3-56.5-16.3c-30.6,0-55.4,9.7-74.5,29c-19.1,19.4-28.6,50.7-28.6,94c0,46,9.4,78.7,28.2,98.3
	c18.8,19.5,43.2,29.3,73.2,29.3c22.1,0,41.2-6.2,57.1-18.7C2847.3,1326.6,2858.7,1307,2865.7,1280.3L2865.7,1280.3z"/>
<path class="st0" d="M475.2,686.1c47.2,39,53.8,108.9,14.8,156.1C451,889.4,381.1,896,334,857c-47.2-39-53.8-108.9-14.8-156.1
	C358.2,653.7,428.1,647.1,475.2,686.1L475.2,686.1z"/>
<path class="st0" d="M690.9,570.9c0,0-318,476.9,247.5,645C938.4,1215.9,119.4,1119.9,690.9,570.9L690.9,570.9z"/>
<path class="st1" d="M905.9,1267.2c30.6-53,98.4-71.2,151.4-40.6c53,30.6,71.2,98.4,40.6,151.4c-30.6,53-98.4,71.2-151.4,40.6
	C893.5,1388,875.3,1320.2,905.9,1267.2L905.9,1267.2z"/>
<path class="st1" d="M756.3,1073.8c0,0,523.2,233.9,594.7-351.7C1351,722.1,1393.1,1545.6,756.3,1073.8L756.3,1073.8z"/>
<path class="st2" d="M1550.8,890.2c-47.6-38.5-55-108.3-16.5-155.9s108.3-55,155.9-16.5c47.6,38.5,55,108.3,16.5,155.9
	C1668.2,921.3,1598.4,928.7,1550.8,890.2L1550.8,890.2z"/>
<path class="st2" d="M1336.4,1007.8c0,0,312.8-480.3-254.6-642.3C1081.8,365.5,1901.8,452.5,1336.4,1007.8L1336.4,1007.8z"/>
<path class="st3" d="M1113.8,313.9c-30,53.4-97.6,72.3-151,42.3c-53.4-30-72.3-97.6-42.3-151c30-53.4,97.6-72.3,151-42.3
	C1124.9,192.9,1143.8,260.5,1113.8,313.9L1113.8,313.9z"/>
<path class="st3" d="M1265.5,505.6c0,0-525.8-228.2-590.8,358.2C674.7,863.8,623.6,40.8,1265.5,505.6L1265.5,505.6z"/>
<path class="st4" d="M226.9,1890.2h15.4c23.7,0,43,10.8,43,43.2c0,32.5-19.6,44.7-49.7,44.7h-8.7V1890.2L226.9,1890.2z
	 M216.4,1987.2h18.5c35.1,0,60.8-14.7,60.8-53.2c0-31-15-52.9-53.1-52.9h-26.3V1987.2L216.4,1987.2z"/>
<path class="st4" d="M317,1987.2h9.6v-77.5H317V1987.2L317,1987.2z M326.6,1876.2H317v12.8h9.6V1876.2L326.6,1876.2z"/>
<path class="st5" d="M356.6,1987.2h9.6v-69.3h17.5v-8.2h-17.5v-6.7c0-9.3-1.4-23.4,11.7-23.4c2.7,0,5.6,0.6,7.6,1.7l0.6-8.4
	c-1.8-1.1-5.9-1.5-9-1.5c-19.9,0-20.5,16.4-20.5,32.7v5.6H341v8.2h15.7V1987.2L356.6,1987.2z"/>
<path class="st5" d="M406.6,1987.2h9.6v-69.3h17.5v-8.2h-17.5v-6.7c0-9.3-1.4-23.4,11.7-23.4c2.7,0,5.6,0.6,7.6,1.7l0.6-8.4
	c-1.8-1.1-5.9-1.5-9-1.5c-19.9,0-20.5,16.4-20.5,32.7v5.6h-15.7v8.2h15.7V1987.2L406.6,1987.2z"/>
<path class="st4" d="M502,1975c-4.6,2.9-14.7,5.8-21.7,5.8c-16.7,0-25.5-13.2-25.5-29.6h53.1v-4.9c0-20.8-9-38.5-30.9-38.5
	c-19.6,0-32.7,16.9-32.7,40.6c0,23.3,9.6,40.6,35.3,40.6c7.1,0,15.8-1.5,22.5-4.3V1975L502,1975z M454.7,1942.9
	c0-12.8,8.7-26.9,22.8-26.9c14.3,0,19.8,13.4,19.8,26.9H454.7L454.7,1942.9z"/>
<path class="st5" d="M525.4,1987.2h9.6v-38.3c0-14,4.1-31,19.3-31c2.4,0,5,0.3,7,0.9v-10c-1.7-0.5-4.4-0.9-6.7-0.9
	c-9.9,0-16.4,8.1-19.9,16.7h-0.3v-14.9h-9.6c0.6,5.6,0.6,8.8,0.6,17.3V1987.2L525.4,1987.2z"/>
<path class="st4" d="M627.3,1975c-4.6,2.9-14.7,5.8-21.7,5.8c-16.7,0-25.5-13.2-25.5-29.6h53.1v-4.9c0-20.8-9-38.5-30.9-38.5
	c-19.6,0-32.7,16.9-32.7,40.6c0,23.3,9.6,40.6,35.3,40.6c7.1,0,15.8-1.5,22.5-4.3V1975L627.3,1975z M580,1942.9
	c0-12.8,8.7-26.9,22.8-26.9c14.3,0,19.8,13.4,19.8,26.9H580L580,1942.9z"/>
<path class="st5" d="M650.7,1987.2h9.6v-42.9c0-12.9,5.5-28.3,23-28.3c13.2,0,18.4,9.4,18.4,24v47.1h9.6v-49.6
	c0-17-7.3-29.8-26.5-29.8c-16.1,0-21.9,8.7-25.1,15.7h-0.3v-13.8h-9.3c0.6,6.2,0.6,12.3,0.6,18.2V1987.2L650.7,1987.2z"/>
<path class="st5" d="M768,1909.6h-17.6v-22l-9.6,3.3v18.7h-15.2v8.2h15.2v45.3c0,14.1,0.6,25.8,17.6,25.8c4.7,0,9.4-1.2,11.7-2.1
	l-0.6-7.9c-2.7,1.1-5.2,1.8-8.8,1.8c-7.8,0-10.3-5.8-10.3-12.8v-50.2H768V1909.6L768,1909.6z"/>
<path class="st4" d="M837.4,1890.2h10.8c14.4,0,26.8,1.1,26.8,18.4c0,14.7-14.1,19.5-26.5,19.5h-11.1V1890.2L837.4,1890.2z
	 M826.9,1987.2h10.5v-50h8.7c10,0,14.6,0.5,20.7,14.1l15.4,35.9h11.6l-18.1-41c-3.3-7.1-5.2-11.7-13.7-12.8v-0.3
	c13.1-1.7,23.6-10.8,23.6-24.5c0-19.5-12.3-27.5-31.2-27.5h-27.4V1987.2L826.9,1987.2z"/>
<path class="st4" d="M953.9,1987.2h9.4c-0.8-5.3-0.8-10-0.8-16.3v-34.2c0-20.2-8.1-28.9-27.2-28.9c-6.8,0-16.9,2.4-22.8,5.3v9.3
	c7.1-4.6,14.7-6.4,22.8-6.4c12.9,0,17.6,6.7,17.6,19.9v4h-1.8c-20.1,0-47.7,1.2-47.7,27.2c0,7,3.5,21.9,25.5,21.9
	c9.6,0,20.4-5,24.6-14.3h0.3V1987.2L953.9,1987.2z M953,1952.8c0,8.4-0.5,28-23,28c-8.8,0-16.1-3.8-16.1-14
	c0-17,19.8-18.7,36.3-18.7h2.7V1952.8L953,1952.8z"/>
<path class="st5" d="M1036,1910.8c-2.7-0.9-9.4-3-18.7-3c-23,0-38.3,16.7-38.3,40.6c0,21.6,12.2,40.6,37.1,40.6
	c7.3,0,13.4-0.5,19.9-2.7l-0.9-9c-5.8,2.1-11.4,3.5-17.5,3.5c-17.5,0-28.1-14.7-28.1-32.4c0-18.8,10.5-32.4,29.2-32.4
	c5.2,0,11.4,1.7,16.6,4L1036,1910.8L1036,1910.8z"/>
<path class="st4" d="M1103.6,1975c-4.6,2.9-14.7,5.8-21.7,5.8c-16.7,0-25.5-13.2-25.5-29.6h53.1v-4.9c0-20.8-9-38.5-30.9-38.5
	c-19.6,0-32.7,16.9-32.7,40.6c0,23.3,9.6,40.6,35.3,40.6c7.1,0,15.8-1.5,22.5-4.3V1975L1103.6,1975z M1056.3,1942.9
	c0-12.8,8.7-26.9,22.8-26.9c14.3,0,19.8,13.4,19.8,26.9H1056.3L1056.3,1942.9z"/>
<path class="st5" d="M1120.2,1985.3c6.8,2.7,14.3,3.6,21.7,3.6c11.7,0,27.1-5.6,27.1-22c0-25.4-38.2-23.6-38.2-38
	c0-9.9,6.8-12.9,16.7-12.9c5.3,0,12.2,1.4,17.2,3.6l0.9-8.4c-6.8-2.6-15-3.5-19.2-3.5c-12.8,0-25.2,5.8-25.2,21.1
	c0,22.5,37.2,19.6,37.2,38c0,8.8-8.1,13.8-17.2,13.8c-7.5,0-14.4-2-20.2-4.9L1120.2,1985.3L1120.2,1985.3z"/>
<path class="st5" d="M1226,1934.1c0,14.6,11.9,26.4,26.5,26.4c14.6,0,26.6-11.9,26.6-26.4c0-14.6-12-26.6-26.6-26.6
	C1237.9,1907.5,1226,1919.5,1226,1934.1L1226,1934.1z"/>
<polygon class="st5" points="1343.9,1987.2 1354.4,1987.2 1354.4,1891.5 1354.7,1891.5 1394.5,1987.2 1403.5,1987.2 1442.1,1891.5 
	1442.4,1891.5 1442.4,1987.2 1452.9,1987.2 1452.9,1881.1 1437.8,1881.1 1398.9,1974.4 1360.2,1881.1 1343.9,1881.1 1343.9,1987.2 
	"/>
<path class="st4" d="M1521.9,1987.2h9.4c-0.8-5.3-0.8-10-0.8-16.3v-34.2c0-20.2-8.1-28.9-27.2-28.9c-6.8,0-16.9,2.4-22.8,5.3v9.3
	c7.1-4.6,14.7-6.4,22.8-6.4c12.9,0,17.6,6.7,17.6,19.9v4h-1.8c-20.1,0-47.7,1.2-47.7,27.2c0,7,3.5,21.9,25.5,21.9
	c9.6,0,20.4-5,24.6-14.3h0.3V1987.2L1521.9,1987.2z M1521,1952.8c0,8.4-0.5,28-23,28c-8.8,0-16.1-3.8-16.1-14
	c0-17,19.8-18.7,36.3-18.7h2.7V1952.8L1521,1952.8z"/>
<path class="st5" d="M1552.7,1987.2h9.6v-42.9c0-12.9,5.5-28.3,23-28.3c13.2,0,18.4,9.4,18.4,24v47.1h9.6v-49.6
	c0-17-7.3-29.8-26.5-29.8c-16.1,0-21.9,8.7-25.1,15.7h-0.3v-13.8h-9.3c0.6,6.2,0.6,12.3,0.6,18.2V1987.2L1552.7,1987.2z"/>
<path class="st4" d="M1690.7,1909.6h-10l-22.3,64.6h-0.3l0.2,0.2l-21.7-64.8H1626l27.5,78.4l-2,6.8c-3,10-5.8,16.9-14,16.9
	c-3.5,0-5.3-0.6-7.1-1.2l-0.9,8.2c3.2,0.8,6.8,1.2,10.3,1.2c10.8,0,16.3-10.6,19.9-21.3L1690.7,1909.6L1690.7,1909.6z"/>
<path class="st4" d="M1744.6,1987.2h21.1c22,0,40.9-7.1,40.9-30.3c0-14-9.1-22.8-22.5-25.2v-0.3c13.1-2.6,19.3-10.6,19.3-24.2
	c0-20.4-16.3-26.1-33.6-26.1h-25.2V1987.2L1744.6,1987.2z M1755.1,1936.5h9.3c15.5,0,31.8,2,31.8,20.8c0,16.9-16,20.7-30.1,20.7
	h-10.9V1936.5L1755.1,1936.5z M1755.4,1890.2h14.4c9,0,23.1,2.1,23.1,17.5c0,16.9-14.7,19.8-25.8,19.8h-11.7V1890.2L1755.4,1890.2z"
	/>
<path class="st4" d="M1880.3,1975c-4.6,2.9-14.7,5.8-21.7,5.8c-16.7,0-25.5-13.2-25.5-29.6h53.1v-4.9c0-20.8-9-38.5-30.9-38.5
	c-19.6,0-32.7,16.9-32.7,40.6c0,23.3,9.6,40.6,35.3,40.6c7.1,0,15.8-1.5,22.5-4.3V1975L1880.3,1975z M1833,1942.9
	c0-12.8,8.7-26.9,22.8-26.9c14.3,0,19.8,13.4,19.8,26.9H1833L1833,1942.9z"/>
<polygon class="st5" points="1903.7,1987.2 1913.2,1987.2 1913.2,1873.2 1903.7,1873.2 1903.7,1987.2 "/>
<path class="st4" d="M1936.8,1987.2h9.6v-77.5h-9.6V1987.2L1936.8,1987.2z M1946.3,1876.2h-9.6v12.8h9.6V1876.2L1946.3,1876.2z"/>
<path class="st4" d="M2021.9,1975c-4.6,2.9-14.7,5.8-21.7,5.8c-16.7,0-25.5-13.2-25.5-29.6h53.1v-4.9c0-20.8-9-38.5-30.9-38.5
	c-19.6,0-32.7,16.9-32.7,40.6c0,23.3,9.6,40.6,35.3,40.6c7.1,0,15.8-1.5,22.5-4.3V1975L2021.9,1975z M1974.6,1942.9
	c0-12.8,8.7-26.9,22.8-26.9c14.3,0,19.8,13.4,19.8,26.9H1974.6L1974.6,1942.9z"/>
<path class="st5" d="M2051.8,1987.2h9.6v-69.3h17.5v-8.2h-17.5v-6.7c0-9.3-1.4-23.4,11.7-23.4c2.7,0,5.6,0.6,7.6,1.7l0.6-8.4
	c-1.8-1.1-5.9-1.5-9-1.5c-19.9,0-20.5,16.4-20.5,32.7v5.6h-15.7v8.2h15.7V1987.2L2051.8,1987.2z"/>
<path class="st5" d="M2088.4,1985.3c6.8,2.7,14.3,3.6,21.7,3.6c11.7,0,27.1-5.6,27.1-22c0-25.4-38.2-23.6-38.2-38
	c0-9.9,6.8-12.9,16.7-12.9c5.3,0,12.2,1.4,17.2,3.6l0.9-8.4c-6.8-2.6-15-3.5-19.2-3.5c-12.8,0-25.2,5.8-25.2,21.1
	c0,22.5,37.2,19.6,37.2,38c0,8.8-8.1,13.8-17.2,13.8c-7.5,0-14.4-2-20.2-4.9L2088.4,1985.3L2088.4,1985.3z"/>
<path class="st5" d="M2194.2,1934.1c0,14.6,11.9,26.4,26.5,26.4c14.6,0,26.6-11.9,26.6-26.4c0-14.6-12-26.6-26.6-26.6
	C2206.1,1907.5,2194.2,1919.5,2194.2,1934.1L2194.2,1934.1z"/>
<path class="st4" d="M2307.2,1934.1c0.3,32.5,16.1,54.9,46.7,54.9c30.6,0,46.4-22.3,46.7-54.9c0.3-28.7-14.7-54.9-46.7-54.9
	C2322,1879.2,2306.9,1905.4,2307.2,1934.1L2307.2,1934.1z M2353.9,1888.4c24.9,0,36.2,23.3,36.2,45.8c0,22.5-11.2,45.8-36.2,45.8
	c-24.9,0-36.2-23.3-36.2-45.8C2317.7,1911.6,2329,1888.4,2353.9,1888.4L2353.9,1888.4z"/>
<path class="st5" d="M2420.1,1987.2h9.6v-42.9c0-12.9,5.5-28.3,23-28.3c13.2,0,18.4,9.4,18.4,24v47.1h9.6v-49.6
	c0-17-7.3-29.8-26.5-29.8c-16.1,0-21.9,8.7-25.1,15.7h-0.3v-13.8h-9.3c0.6,6.2,0.6,12.3,0.6,18.2V1987.2L2420.1,1987.2z"/>
<path class="st4" d="M2556,1975c-4.6,2.9-14.7,5.8-21.7,5.8c-16.7,0-25.5-13.2-25.5-29.6h53.1v-4.9c0-20.8-9-38.5-30.9-38.5
	c-19.6,0-32.7,16.9-32.7,40.6c0,23.3,9.6,40.6,35.3,40.6c7.1,0,15.8-1.5,22.5-4.3V1975L2556,1975z M2508.7,1942.9
	c0-12.8,8.7-26.9,22.8-26.9c14.3,0,19.8,13.4,19.8,26.9H2508.7L2508.7,1942.9z"/>
<polygon class="st5" points="2620.1,1987.2 2630.6,1987.2 2630.6,1895.6 2630.9,1895.6 2683.9,1987.2 2698,1987.2 2698,1881.1 
	2687.6,1881.1 2687.6,1974.4 2687.3,1974.4 2633.3,1881.1 2620.1,1881.1 2620.1,1987.2 "/>
<path class="st4" d="M2765.7,1987.2h9.4c-0.8-5.3-0.8-10-0.8-16.3v-34.2c0-20.2-8.1-28.9-27.2-28.9c-6.8,0-16.9,2.4-22.8,5.3v9.3
	c7.1-4.6,14.7-6.4,22.8-6.4c12.9,0,17.6,6.7,17.6,19.9v4h-1.8c-20.1,0-47.7,1.2-47.7,27.2c0,7,3.5,21.9,25.5,21.9
	c9.6,0,20.4-5,24.6-14.3h0.3V1987.2L2765.7,1987.2z M2764.8,1952.8c0,8.4-0.5,28-23,28c-8.8,0-16.1-3.8-16.1-14
	c0-17,19.8-18.7,36.3-18.7h2.7V1952.8L2764.8,1952.8z"/>
<path class="st5" d="M2830,1909.6h-17.6v-22l-9.6,3.3v18.7h-15.2v8.2h15.2v45.3c0,14.1,0.6,25.8,17.6,25.8c4.7,0,9.4-1.2,11.7-2.1
	l-0.6-7.9c-2.7,1.1-5.2,1.8-8.8,1.8c-7.8,0-10.3-5.8-10.3-12.8v-50.2h17.6V1909.6L2830,1909.6z"/>
<path class="st4" d="M2846.5,1987.2h9.6v-77.5h-9.6V1987.2L2846.5,1987.2z M2856,1876.2h-9.6v12.8h9.6V1876.2L2856,1876.2z"/>
<path class="st4" d="M2873.6,1948.4c0,21.1,11.1,40.6,36.2,40.6c25.1,0,36.2-19.5,36.2-40.6c0-21.1-11.1-40.6-36.2-40.6
	C2884.7,1907.8,2873.6,1927.3,2873.6,1948.4L2873.6,1948.4z M2884.1,1948.4c0-17.9,9-32.4,25.7-32.4c16.7,0,25.7,14.4,25.7,32.4
	c0,17.9-9,32.4-25.7,32.4C2893.1,1980.8,2884.1,1966.3,2884.1,1948.4L2884.1,1948.4z"/>
<path class="st5" d="M2963.4,1987.2h9.6v-42.9c0-12.9,5.5-28.3,23-28.3c13.2,0,18.4,9.4,18.4,24v47.1h9.6v-49.6
	c0-17-7.3-29.8-26.5-29.8c-16.1,0-21.9,8.7-25.1,15.7h-0.3v-13.8h-9.3c0.6,6.2,0.6,12.3,0.6,18.2V1987.2L2963.4,1987.2z"/>
<polygon class="st5" points="166.4,1756.5 177.4,1756.5 177.4,1645.4 166.4,1645.4 166.4,1756.5 "/>
<path class="st5" d="M201.8,1756.5h10v-44.9c0-13.5,5.7-29.6,24-29.6c13.8,0,19.3,9.9,19.3,25.1v49.3h10v-51.9
	c0-17.8-7.6-31.2-27.7-31.2c-16.9,0-22.9,9.1-26.3,16.4h-0.3v-14.5h-9.7c0.6,6.5,0.6,12.9,0.6,19.1V1756.5L201.8,1756.5z"/>
<path class="st5" d="M325,1675.3h-18.5v-23.1l-10,3.5v19.6h-15.9v8.6h15.9v47.4c0,14.8,0.6,27,18.5,27c4.9,0,9.9-1.3,12.3-2.2
	l-0.6-8.3c-2.9,1.1-5.4,1.9-9.2,1.9c-8.1,0-10.8-6-10.8-13.4v-52.5H325V1675.3L325,1675.3z"/>
<path class="st4" d="M397.1,1743.8c-4.8,3-15.4,6-22.8,6c-17.5,0-26.7-13.8-26.7-31h55.5v-5.1c0-21.8-9.4-40.3-32.3-40.3
	c-20.5,0-34.2,17.7-34.2,42.5c0,24.3,10,42.5,36.9,42.5c7.5,0,16.5-1.6,23.6-4.5V1743.8L397.1,1743.8z M347.6,1710.2
	c0-13.4,9.1-28.2,23.9-28.2c15,0,20.7,14,20.7,28.2H347.6L347.6,1710.2z"/>
<path class="st5" d="M422,1756.5h10v-40.1c0-14.6,4.3-32.5,20.2-32.5c2.5,0,5.3,0.3,7.3,1v-10.5c-1.7-0.5-4.6-1-7-1
	c-10.3,0-17.2,8.4-20.8,17.5h-0.3v-15.6h-10c0.6,5.9,0.6,9.2,0.6,18.1V1756.5L422,1756.5z"/>
<polygon class="st5" points="468.7,1719.1 508.6,1719.1 508.6,1708.1 468.7,1708.1 468.7,1719.1 "/>
<path class="st4" d="M539.8,1655h11.3c15.1,0,28,1.1,28,19.3c0,15.4-14.8,20.4-27.7,20.4h-11.6V1655L539.8,1655z M528.8,1756.5h11
	v-52.4h9.1c10.5,0,15.3,0.5,21.6,14.8l16.1,37.6h12.1l-18.9-43c-3.5-7.5-5.4-12.3-14.3-13.4v-0.3c13.7-1.8,24.7-11.3,24.7-25.6
	c0-20.4-12.9-28.8-32.6-28.8h-28.6V1756.5L528.8,1756.5z"/>
<path class="st4" d="M662.2,1756.5h9.9c-0.8-5.6-0.8-10.5-0.8-17v-35.8c0-21.2-8.4-30.2-28.5-30.2c-7.2,0-17.7,2.5-23.9,5.6v9.7
	c7.5-4.8,15.4-6.7,23.9-6.7c13.5,0,18.5,7,18.5,20.8v4.1h-1.9c-21,0-50,1.3-50,28.5c0,7.3,3.7,22.9,26.7,22.9c10,0,21.3-5.2,25.8-15
	h0.3V1756.5L662.2,1756.5z M661.3,1720.5c0,8.7-0.5,29.3-24,29.3c-9.2,0-16.9-4-16.9-14.6c0-17.8,20.7-19.6,38-19.6h2.9V1720.5
	L661.3,1720.5z"/>
<path class="st5" d="M748.6,1676.6c-2.9-1-9.9-3.2-19.6-3.2c-24,0-40.1,17.5-40.1,42.5c0,22.6,12.7,42.5,38.8,42.5
	c7.6,0,14-0.5,20.8-2.9l-1-9.4c-6,2.2-11.9,3.7-18.3,3.7c-18.3,0-29.4-15.4-29.4-33.9c0-19.7,11-33.9,30.6-33.9
	c5.4,0,11.9,1.8,17.3,4.1L748.6,1676.6L748.6,1676.6z"/>
<path class="st4" d="M765.3,1756.5h10v-81.2h-10V1756.5L765.3,1756.5z M775.4,1640.3h-10v13.4h10V1640.3L775.4,1640.3z"/>
<path class="st4" d="M847,1756.5h9.9c-0.8-5.6-0.8-10.5-0.8-17v-35.8c0-21.2-8.4-30.2-28.5-30.2c-7.2,0-17.7,2.5-23.9,5.6v9.7
	c7.5-4.8,15.4-6.7,23.9-6.7c13.5,0,18.5,7,18.5,20.8v4.1h-1.9c-21,0-50,1.3-50,28.5c0,7.3,3.7,22.9,26.7,22.9c10,0,21.3-5.2,25.8-15
	h0.3V1756.5L847,1756.5z M846.1,1720.5c0,8.7-0.5,29.3-24,29.3c-9.2,0-16.9-4-16.9-14.6c0-17.8,20.7-19.6,38-19.6h2.9V1720.5
	L846.1,1720.5z"/>
<polygon class="st5" points="879.7,1756.5 889.7,1756.5 889.7,1637.2 879.7,1637.2 879.7,1756.5 "/>
<path class="st4" d="M1005.1,1756.5h9.9c-0.8-5.6-0.8-10.5-0.8-17v-35.8c0-21.2-8.4-30.2-28.5-30.2c-7.2,0-17.7,2.5-23.9,5.6v9.7
	c7.5-4.8,15.4-6.7,23.9-6.7c13.5,0,18.5,7,18.5,20.8v4.1h-1.9c-21,0-50,1.3-50,28.5c0,7.3,3.7,22.9,26.7,22.9c10,0,21.3-5.2,25.8-15
	h0.3V1756.5L1005.1,1756.5z M1004.2,1720.5c0,8.7-0.5,29.3-24,29.3c-9.2,0-16.9-4-16.9-14.6c0-17.8,20.7-19.6,38-19.6h2.9V1720.5
	L1004.2,1720.5z"/>
<path class="st5" d="M1037.8,1756.5h10v-44.9c0-13.5,5.7-29.6,24-29.6c13.8,0,19.3,9.9,19.3,25.1v49.3h10v-51.9
	c0-17.8-7.6-31.2-27.7-31.2c-16.9,0-22.9,9.1-26.3,16.4h-0.3v-14.5h-9.7c0.6,6.5,0.6,12.9,0.6,19.1V1756.5L1037.8,1756.5z"/>
<path class="st4" d="M1190.3,1637.2h-10v51.9h-0.3c-1.4-4-9.4-15.6-25.3-15.6c-23.9,0-33.4,17.8-33.4,42.5c0,24,11.1,42.5,33.4,42.5
	c11.6,0,19.9-4.5,25.3-14.8h0.3v12.9h10V1637.2L1190.3,1637.2z M1132.2,1715.9c0-15.8,4.9-33.9,24-33.9c17.8,0,24,19.1,24,33.9
	s-6.2,33.9-24,33.9C1137.2,1749.8,1132.2,1731.7,1132.2,1715.9L1132.2,1715.9z"/>
<path class="st4" d="M1270.4,1655h11.3c15.1,0,28,1.1,28,19.3c0,15.4-14.8,20.4-27.7,20.4h-11.6V1655L1270.4,1655z M1259.4,1756.5
	h11v-52.4h9.1c10.5,0,15.3,0.5,21.6,14.8l16.1,37.6h12.1l-18.9-43c-3.5-7.5-5.4-12.3-14.3-13.4v-0.3c13.7-1.8,24.7-11.3,24.7-25.6
	c0-20.4-12.9-28.8-32.6-28.8h-28.6V1756.5L1259.4,1756.5z"/>
<path class="st4" d="M1400.6,1743.8c-4.8,3-15.4,6-22.8,6c-17.5,0-26.7-13.8-26.7-31h55.5v-5.1c0-21.8-9.4-40.3-32.3-40.3
	c-20.5,0-34.2,17.7-34.2,42.5c0,24.3,10,42.5,36.9,42.5c7.5,0,16.5-1.6,23.6-4.5V1743.8L1400.6,1743.8z M1351.1,1710.2
	c0-13.4,9.1-28.2,23.9-28.2c15,0,20.7,14,20.7,28.2H1351.1L1351.1,1710.2z"/>
<polygon class="st5" points="1425.5,1756.5 1435.5,1756.5 1435.5,1637.2 1425.5,1637.2 1425.5,1756.5 "/>
<path class="st4" d="M1460.6,1756.5h10v-81.2h-10V1756.5L1460.6,1756.5z M1470.6,1640.3h-10v13.4h10V1640.3L1470.6,1640.3z"/>
<path class="st4" d="M1501.8,1715.9c0-15.8,4.9-33.9,24-33.9c18.3,0,24,14.3,24,33.9c0,14.8-6.5,32-24.7,32
	C1508.2,1747.9,1501.8,1731.8,1501.8,1715.9L1501.8,1715.9z M1559.9,1675.3h-10v9.2h-0.3c-7.5-9.7-14.5-11.1-25.3-11.1
	c-23.9,0-33.4,17.8-33.4,42.5c0,18,8.3,40.6,34.2,40.6c10.3,0,19.3-4.1,24.7-15.9h0.3c0,22.9-2.2,41.7-28,41.7
	c-8.7,0-17.7-2.6-23.9-5.7l-0.8,10c4.1,1.3,13.8,4.3,24.5,4.3c27.8,0,38-18.5,38-41V1675.3L1559.9,1675.3z"/>
<path class="st4" d="M1583.8,1756.5h10v-81.2h-10V1756.5L1583.8,1756.5z M1593.9,1640.3h-10v13.4h10V1640.3L1593.9,1640.3z"/>
<path class="st4" d="M1612.7,1715.9c0,22.1,11.6,42.5,37.9,42.5c26.3,0,37.9-20.4,37.9-42.5s-11.6-42.5-37.9-42.5
	C1624.3,1673.4,1612.7,1693.8,1612.7,1715.9L1612.7,1715.9z M1623.7,1715.9c0-18.8,9.4-33.9,26.9-33.9c17.5,0,26.9,15.1,26.9,33.9
	c0,18.8-9.4,33.9-26.9,33.9C1633,1749.8,1623.7,1734.7,1623.7,1715.9L1623.7,1715.9z"/>
<path class="st5" d="M1770.4,1675.3h-10v44.9c0,13.5-5.7,29.6-24,29.6c-13.8,0-19.3-9.9-19.3-25.1v-49.3h-10v51.9
	c0,17.8,7.6,31.2,27.7,31.2c16.9,0,22.9-9.1,26.3-16.4h0.3v14.5h9.7c-0.6-6.5-0.6-12.9-0.6-19.1V1675.3L1770.4,1675.3z"/>
<path class="st5" d="M1788.1,1754.6c7.2,2.9,15,3.8,22.8,3.8c12.3,0,28.3-5.9,28.3-23.1c0-26.6-39.9-24.7-39.9-39.8
	c0-10.3,7.2-13.5,17.5-13.5c5.6,0,12.7,1.4,18,3.8l1-8.8c-7.2-2.7-15.8-3.7-20-3.7c-13.4,0-26.4,6-26.4,22.1c0,23.5,39,20.5,39,39.8
	c0,9.2-8.4,14.5-18,14.5c-7.8,0-15.1-2.1-21.2-5.1L1788.1,1754.6L1788.1,1754.6z"/>
<path class="st5" d="M1978.6,1647.6c-5.7-3-18.9-4.1-25.5-4.1c-34.4,0-56,23.7-56,57.4c0,34.4,21,57.4,56,57.4
	c7,0,19.4-1.1,25.5-4.8l-0.6-9.5c-6.4,3.8-17.5,4.8-24.8,4.8c-29.3,0-45-19.9-45-47.9c0-27.5,16.2-47.9,45-47.9
	c7.8,0,17.8,1.1,24.8,4.8L1978.6,1647.6L1978.6,1647.6z"/>
<path class="st4" d="M2000.4,1715.9c0,22.1,11.6,42.5,37.9,42.5c26.3,0,37.9-20.4,37.9-42.5s-11.6-42.5-37.9-42.5
	C2012,1673.4,2000.4,1693.8,2000.4,1715.9L2000.4,1715.9z M2011.3,1715.9c0-18.8,9.4-33.9,26.9-33.9s26.9,15.1,26.9,33.9
	c0,18.8-9.4,33.9-26.9,33.9S2011.3,1734.7,2011.3,1715.9L2011.3,1715.9z"/>
<path class="st5" d="M2094.8,1756.5h10v-44.9c0-13.5,5.7-29.6,24-29.6c13.8,0,19.3,9.9,19.3,25.1v49.3h10v-51.9
	c0-17.8-7.6-31.2-27.7-31.2c-16.9,0-22.9,9.1-26.3,16.4h-0.3v-14.5h-9.7c0.6,6.5,0.6,12.9,0.6,19.1V1756.5L2094.8,1756.5z"/>
<path class="st5" d="M2189.8,1756.5h10v-72.6h18.3v-8.6h-18.3v-7c0-9.7-1.4-24.5,12.3-24.5c2.9,0,5.9,0.6,8,1.7l0.6-8.8
	c-1.9-1.1-6.2-1.6-9.4-1.6c-20.8,0-21.5,17.2-21.5,34.2v5.9h-16.4v8.6h16.4V1756.5L2189.8,1756.5z"/>
<path class="st4" d="M2235.7,1756.5h10v-81.2h-10V1756.5L2235.7,1756.5z M2245.7,1640.3h-10v13.4h10V1640.3L2245.7,1640.3z"/>
<path class="st4" d="M2335,1637.2h-10v51.9h-0.3c-1.4-4-9.4-15.6-25.3-15.6c-23.9,0-33.4,17.8-33.4,42.5c0,24,11.1,42.5,33.4,42.5
	c11.6,0,19.9-4.5,25.3-14.8h0.3v12.9h10V1637.2L2335,1637.2z M2276.9,1715.9c0-15.8,4.9-33.9,24-33.9c17.8,0,24,19.1,24,33.9
	s-6.2,33.9-24,33.9C2281.9,1749.8,2276.9,1731.7,2276.9,1715.9L2276.9,1715.9z"/>
<path class="st4" d="M2413.4,1743.8c-4.8,3-15.4,6-22.8,6c-17.5,0-26.7-13.8-26.7-31h55.5v-5.1c0-21.8-9.4-40.3-32.3-40.3
	c-20.5,0-34.2,17.7-34.2,42.5c0,24.3,10,42.5,36.9,42.5c7.5,0,16.6-1.6,23.6-4.5V1743.8L2413.4,1743.8z M2363.9,1710.2
	c0-13.4,9.1-28.2,23.9-28.2c15,0,20.7,14,20.7,28.2H2363.9L2363.9,1710.2z"/>
<path class="st5" d="M2438.3,1756.5h10v-44.9c0-13.5,5.7-29.6,24-29.6c13.8,0,19.3,9.9,19.3,25.1v49.3h10v-51.9
	c0-17.8-7.6-31.2-27.7-31.2c-16.9,0-22.9,9.1-26.3,16.4h-0.3v-14.5h-9.7c0.6,6.5,0.6,12.9,0.6,19.1V1756.5L2438.3,1756.5z"/>
<path class="st5" d="M2580.1,1676.6c-2.9-1-9.9-3.2-19.6-3.2c-24,0-40.1,17.5-40.1,42.5c0,22.6,12.7,42.5,38.8,42.5
	c7.6,0,14-0.5,20.8-2.9l-1-9.4c-6,2.2-11.9,3.7-18.3,3.7c-18.3,0-29.4-15.4-29.4-33.9c0-19.7,11-33.9,30.6-33.9
	c5.4,0,11.9,1.8,17.3,4.1L2580.1,1676.6L2580.1,1676.6z"/>
<path class="st4" d="M2651.3,1743.8c-4.8,3-15.4,6-22.8,6c-17.5,0-26.7-13.8-26.7-31h55.5v-5.1c0-21.8-9.4-40.3-32.3-40.3
	c-20.5,0-34.2,17.7-34.2,42.5c0,24.3,10,42.5,36.9,42.5c7.5,0,16.5-1.6,23.6-4.5V1743.8L2651.3,1743.8z M2601.8,1710.2
	c0-13.4,9.1-28.2,23.9-28.2c15,0,20.7,14,20.7,28.2H2601.8L2601.8,1710.2z"/>
<path class="st5" d="M2797.9,1647.6c-5.7-3-18.9-4.1-25.5-4.1c-34.4,0-56,23.7-56,57.4c0,34.4,21,57.4,56,57.4
	c7,0,19.4-1.1,25.5-4.8l-0.6-9.5c-6.4,3.8-17.5,4.8-24.8,4.8c-29.3,0-45-19.9-45-47.9c0-27.5,16.2-47.9,45-47.9
	c7.8,0,17.8,1.1,24.8,4.8L2797.9,1647.6L2797.9,1647.6z"/>
<path class="st4" d="M2825.8,1756.5h10v-81.2h-10V1756.5L2825.8,1756.5z M2835.8,1640.3h-10v13.4h10V1640.3L2835.8,1640.3z"/>
<path class="st5" d="M2860.9,1756.5h10v-40.1c0-14.6,4.3-32.5,20.2-32.5c2.5,0,5.3,0.3,7.3,1v-10.5c-1.7-0.5-4.6-1-7-1
	c-10.3,0-17.2,8.4-20.8,17.5h-0.3v-15.6h-10c0.6,5.9,0.6,9.2,0.6,18.1V1756.5L2860.9,1756.5z"/>
<path class="st5" d="M2967.2,1676.6c-2.9-1-9.9-3.2-19.6-3.2c-24,0-40.1,17.5-40.1,42.5c0,22.6,12.7,42.5,38.8,42.5
	c7.6,0,14-0.5,20.8-2.9l-1-9.4c-6,2.2-11.9,3.7-18.3,3.7c-18.3,0-29.4-15.4-29.4-33.9c0-19.7,11-33.9,30.6-33.9
	c5.4,0,11.9,1.8,17.3,4.1L2967.2,1676.6L2967.2,1676.6z"/>
<polygon class="st5" points="2984,1756.5 2994,1756.5 2994,1637.2 2984,1637.2 2984,1756.5 "/>
<path class="st4" d="M3073.4,1743.8c-4.8,3-15.4,6-22.8,6c-17.5,0-26.7-13.8-26.7-31h55.5v-5.1c0-21.8-9.4-40.3-32.3-40.3
	c-20.5,0-34.2,17.7-34.2,42.5c0,24.3,10,42.5,36.9,42.5c7.5,0,16.6-1.6,23.6-4.5V1743.8L3073.4,1743.8z M3024,1710.2
	c0-13.4,9.1-28.2,23.9-28.2c15,0,20.7,14,20.7,28.2H3024L3024,1710.2z"/>
<line class="st6" x1="124.1" y1="1824" x2="3116.1" y2="1824"/>
</svg>
