<svg xmlns="http://www.w3.org/2000/svg" fill="none" viewBox="0 0 220 220" height="220" width="220">
<circle fill="#FBE9E9" r="110" cy="110" cx="110"></circle>
<mask height="220" width="220" y="0" x="0" maskUnits="userSpaceOnUse" style="mask-type:alpha" id="mask0_7900_69797">
<circle fill="#FBE9E9" r="110" cy="110" cx="110"></circle>
</mask>
<g mask="url(#mask0_7900_69797)">
<path stroke-dasharray="0.01 0.01" stroke-linejoin="round" stroke-width="0.76655" stroke="#0A524B" d="M92.0774 151.022C93.4878 150.796 95.151 150.703 97.2025 151.59"></path>
<path stroke-dasharray="0.01 0.01" stroke-linejoin="round" stroke-width="0.76655" stroke="#0A524B" d="M90.2433 155.924C91.4009 155.565 94.0809 156.013 95.374 156.5"></path>
<path stroke-dasharray="0.01 0.01" stroke-linejoin="round" stroke-width="0.76655" stroke="#0A524B" d="M90.731 149.144C91.8886 148.785 93.4989 149.057 94.5686 149.232"></path>
<path stroke-linejoin="round" stroke-width="0.76655" stroke="#0A524B" fill="#FFDDCA" d="M102.409 142.433C98.8546 139.404 94.1793 143.09 92.286 145.311C92.9298 147.116 95.7953 150.814 99.4558 151.95C102.384 152.859 106.541 150.671 108.254 149.463C107.787 148.382 105.964 145.462 102.409 142.433Z"></path>
<path stroke-dasharray="0.01 0.01" stroke-linejoin="round" stroke-width="0.76655" stroke="#0A524B" d="M94.8606 146.101C95.8494 145.07 97.7132 143.374 99.8843 142.844"></path>
<path stroke-dasharray="0.01 0.01" stroke-linejoin="round" stroke-width="0.76655" stroke="#0A524B" d="M94.3651 149.561C95.0719 148.576 97.5837 146.948 98.9091 146.557"></path>
<path stroke-dasharray="0.01 0.01" stroke-linejoin="round" stroke-width="0.76655" stroke="#0A524B" d="M97.2935 150.47C98.0003 149.485 99.4393 148.728 100.399 148.223"></path>
<path stroke-dasharray="0.01 0.01" stroke-linejoin="round" stroke-width="0.76655" stroke="#0A524B" d="M100.329 151.002C100.922 150.384 102.248 149.992 102.248 149.992"></path>
<path stroke-dasharray="0.01 0.01" stroke-linejoin="round" stroke-width="0.76655" stroke="#0A524B" d="M94.747 146.467C94.9785 147.876 96.0282 150.064 96.0282 150.064"></path>
<path stroke-dasharray="0.01 0.01" stroke-linejoin="round" stroke-width="0.76655" stroke="#0A524B" d="M94.2514 149.929C94.2767 151.14 94.548 152.82 95.419 153.893"></path>
<path stroke-dasharray="0.01 0.01" stroke-linejoin="round" stroke-width="0.76655" stroke="#0A524B" d="M97.1799 150.836C97.2052 152.048 97.5901 153.361 98.095 154.32"></path>
<path stroke-dasharray="0.01 0.01" stroke-linejoin="round" stroke-width="0.76655" stroke="#0A524B" d="M100.21 151.386C100.349 152.232 101.22 153.305 101.22 153.305"></path>
<path stroke-linejoin="round" stroke-width="0.76655" stroke="#0A524B" d="M92.6643 145.421C95.9294 146.969 105.396 150.174 107.9 149.346"></path>
<path stroke-linejoin="round" stroke-width="0.76655" stroke="#0A524B" fill="#FFDDCA" d="M98.9107 142.707C94.6904 146.469 89.7337 143.908 87.7829 142.157C93.1281 133.159 101.662 133.07 105.261 134.15C104.903 135.435 103.131 138.945 98.9107 142.707Z"></path>
<path stroke-dasharray="0.01 0.01" stroke-linejoin="round" stroke-width="0.76655" stroke="#0A524B" d="M93.2293 139.975C93.2597 138.547 93.2947 137.518 94.5344 135.658"></path>
<path stroke-dasharray="0.01 0.01" stroke-linejoin="round" stroke-width="0.76655" stroke="#0A524B" d="M96.1645 139.005C96.0187 137.802 96.8667 135.63 97.5777 134.445"></path>
<path stroke-dasharray="0.01 0.01" stroke-linejoin="round" stroke-width="0.76655" stroke="#0A524B" d="M98.9356 137.696C98.7898 136.493 99.5096 135.304 99.8743 134.283"></path>
<path stroke-dasharray="0.01 0.01" stroke-linejoin="round" stroke-width="0.76655" stroke="#0A524B" d="M91.1423 140.961C90.9965 139.758 91.5522 138.222 91.9169 137.201"></path>
<path stroke-dasharray="0.01 0.01" stroke-linejoin="round" stroke-width="0.76655" stroke="#0A524B" d="M101.703 136.372C101.721 135.515 102.432 134.33 102.432 134.33"></path>
<path stroke-dasharray="0.01 0.01" stroke-linejoin="round" stroke-width="0.76655" stroke="#0A524B" d="M93.3935 140.319C93.8857 141.358 96.4379 142.27 96.4379 142.27"></path>
<path stroke-dasharray="0.01 0.01" stroke-linejoin="round" stroke-width="0.76655" stroke="#0A524B" d="M96.3286 139.354C96.9156 139.827 97.6969 140.579 98.854 140.939"></path>
<path stroke-dasharray="0.01 0.01" stroke-linejoin="round" stroke-width="0.76655" stroke="#0A524B" d="M99.0997 138.041C99.7742 138.57 100.095 138.614 101.116 138.979"></path>
<path stroke-dasharray="0.01 0.01" stroke-linejoin="round" stroke-width="0.76655" stroke="#0A524B" d="M91.3063 141.31C91.9861 142.608 94.3002 143.33 94.3002 143.33"></path>
<path stroke-dasharray="0.01 0.01" stroke-linejoin="round" stroke-width="0.76655" stroke="#0A524B" d="M101.875 136.735C102.549 137.264 103.402 137.273 103.402 137.273"></path>
<path stroke-linejoin="round" stroke-width="0.76655" stroke="#0A524B" d="M88.1392 141.913C91.5909 140.844 103.559 136.351 104.842 134.047"></path>
<path stroke-linejoin="round" stroke-width="0.76655" stroke="#0A524B" fill="#FFDDCA" d="M86.0912 139.173C94.7828 140.694 101.717 131.395 98.6735 126.282C96.218 124.957 92.3487 125.629 88.6828 129.385C85.2026 132.95 85.2552 137.286 86.0912 139.173Z"></path>
<path stroke-dasharray="0.01 0.01" stroke-linejoin="round" stroke-width="0.76655" stroke="#0A524B" d="M89.5714 135.607C89.1033 134.257 88.7222 132.635 89.2379 130.461"></path>
<path stroke-dasharray="0.01 0.01" stroke-linejoin="round" stroke-width="0.76655" stroke="#0A524B" d="M91.9873 133.68C91.4322 132.603 91.4061 129.886 91.6606 128.527"></path>
<path stroke-dasharray="0.01 0.01" stroke-linejoin="round" stroke-width="0.76655" stroke="#0A524B" d="M94.1291 131.486C93.5739 130.408 93.8353 129.043 93.8221 127.959"></path>
<path stroke-dasharray="0.01 0.01" stroke-linejoin="round" stroke-width="0.76655" stroke="#0A524B" d="M87.9583 137.261C87.4032 136.184 87.3903 134.551 87.3771 133.467"></path>
<path stroke-dasharray="0.01 0.01" stroke-linejoin="round" stroke-width="0.76655" stroke="#0A524B" d="M96.2637 129.285C95.9828 128.475 96.2374 127.117 96.2374 127.117"></path>
<path stroke-dasharray="0.01 0.01" stroke-linejoin="round" stroke-width="0.76655" stroke="#0A524B" d="M89.8457 135.876C90.6685 136.679 93.3785 136.646 93.3785 136.646"></path>
<path stroke-dasharray="0.01 0.01" stroke-linejoin="round" stroke-width="0.76655" stroke="#0A524B" d="M92.2615 133.95C93.3521 134.479 94.1684 134.74 95.7944 134.721"></path>
<path stroke-dasharray="0.01 0.01" stroke-linejoin="round" stroke-width="0.76655" stroke="#0A524B" d="M94.4033 131.753C95.2195 132.014 96.5778 132.269 97.6618 132.256"></path>
<path stroke-dasharray="0.01 0.01" stroke-linejoin="round" stroke-width="0.76655" stroke="#0A524B" d="M88.2326 137.528C89.0488 137.79 90.4139 138.037 90.4139 138.037"></path>
<path stroke-dasharray="0.01 0.01" stroke-linejoin="round" stroke-width="0.76655" stroke="#0A524B" d="M96.5519 129.57C97.3682 129.831 98.1709 129.543 98.1709 129.543"></path>
<path stroke-linejoin="round" stroke-width="0.76655" stroke="#0A524B" d="M86.3589 138.899C89.2232 136.695 97.9971 128.621 98.3991 126.014"></path>
<path stroke-linejoin="round" stroke-width="0.76655" stroke="#0A524B" fill="#FFDDCA" d="M76.608 130.798C73.9276 134.623 78.0383 138.929 80.4287 140.604C82.1649 139.793 85.5762 136.592 86.3616 132.84C86.9899 129.839 84.4194 125.907 83.0556 124.316C82.0232 124.883 79.2883 126.973 76.608 130.798Z"></path>
<path stroke-dasharray="0.01 0.01" stroke-linejoin="round" stroke-width="0.76655" stroke="#0A524B" d="M80.9709 137.969C79.8513 137.082 77.9873 135.387 77.2546 133.275"></path>
<path stroke-dasharray="0.01 0.01" stroke-linejoin="round" stroke-width="0.76655" stroke="#0A524B" d="M81.9743 135.047C80.9274 134.436 79.0693 132.089 78.5546 130.807"></path>
<path stroke-dasharray="0.01 0.01" stroke-linejoin="round" stroke-width="0.76655" stroke="#0A524B" d="M82.6026 132.043C81.5558 131.432 80.666 130.071 80.0728 129.164"></path>
<path stroke-dasharray="0.01 0.01" stroke-linejoin="round" stroke-width="0.76655" stroke="#0A524B" d="M82.8443 128.973C82.1726 128.441 81.6579 127.158 81.6579 127.158"></path>
<path stroke-dasharray="0.01 0.01" stroke-linejoin="round" stroke-width="0.76655" stroke="#0A524B" d="M81.346 138.047C82.7273 137.683 84.8068 136.432 84.8068 136.432"></path>
<path stroke-dasharray="0.01 0.01" stroke-linejoin="round" stroke-width="0.76655" stroke="#0A524B" d="M82.3494 135.124C83.5534 134.985 85.1995 134.556 86.1854 133.588"></path>
<path stroke-dasharray="0.01 0.01" stroke-linejoin="round" stroke-width="0.76655" stroke="#0A524B" d="M82.9777 132.123C84.1817 131.983 85.4527 131.476 86.36 130.883"></path>
<path stroke-dasharray="0.01 0.01" stroke-linejoin="round" stroke-width="0.76655" stroke="#0A524B" d="M83.2385 129.056C84.0673 128.837 85.0532 127.869 85.0532 127.869"></path>
<path stroke-linejoin="round" stroke-width="0.76655" stroke="#0A524B" d="M80.4996 140.22C81.7328 136.823 84.0302 127.097 82.9695 124.682"></path>
<path stroke-linejoin="round" stroke-width="0.76655" stroke="#0A524B" fill="#FFDDCA" d="M89.7673 140.094C88.7121 135.921 85.708 136.998 84.3378 138.059C81.3333 143.947 88.4456 146.694 92.3773 147.331C95.1426 143.211 91.7895 140.79 89.7673 140.094Z"></path>
<path stroke-linejoin="round" stroke-width="1.22648" stroke="black" fill="#FFDDCA" d="M176.68 71.5889C173.104 75.6131 166.2 78.1698 166.2 78.1698L159.897 72.5682C159.897 72.5682 189.9 65.9276 164.849 46.2268C151.569 35.783 129.339 46.9473 129.339 46.9473C129.339 46.9473 105.127 35.3419 102.252 34.1538C130.357 36.5711 135.481 26.7674 153.688 31.668C171.895 36.5685 190.948 55.5358 176.68 71.5889Z"></path>
<path stroke-linejoin="round" stroke-width="1.22648" stroke="black" fill="#FFDDCA" d="M129.062 46.7021C135.683 52.1764 158.856 71.6439 169.615 80.6934C134.884 103.154 111.817 147.262 104.625 166.509C92.147 157.47 65.7593 138.12 60.0297 133.027C52.8678 126.662 41.6314 115.65 38.1931 103.364C32.3348 82.4308 49.0435 47.8847 74.5063 37.6978C99.9691 27.5109 120.786 39.8594 129.062 46.7021Z"></path>
<path stroke-linejoin="round" stroke-linecap="round" stroke-width="2.2" stroke="white" d="M50.5529 64.0332C44.165 75.1482 35.2219 101.518 50.5529 118.075"></path>
<ellipse stroke-linejoin="round" stroke-width="1.22648" stroke="black" fill="#F5B896" transform="rotate(127.235 137.486 123.72)" ry="8.91228" rx="53.7191" cy="123.72" cx="137.486"></ellipse>
<path stroke-linejoin="round" stroke-width="1.22648" stroke="black" fill="#764738" d="M114.291 198.603C102.844 200.367 104.973 190.061 106.302 181.65C107.49 174.14 104.875 163.798 104.875 163.798C112.535 174.701 125.738 196.839 114.291 198.603Z"></path>
<path stroke-linejoin="round" stroke-linecap="round" stroke-width="1.40946" stroke="white" d="M109.645 182.848C108.766 185.746 107.828 192.102 111.111 194.346"></path>
<path stroke-linejoin="round" stroke-linecap="round" stroke-width="1.5331" stroke="black" d="M120.309 167.518L141.389 188.214"></path>
<path stroke-linejoin="round" stroke-linecap="round" stroke-width="1.5331" stroke="black" d="M124.908 162.15L141.773 167.516"></path>
<path stroke-linejoin="round" stroke-width="0.76655" stroke="#0A524B" fill="#63B1AA" d="M101.176 60.2602C100.352 64.8571 105.892 67.0373 108.765 67.5527C109.999 66.0869 111.749 61.748 110.885 58.0139C110.194 55.0266 106.209 52.5392 104.303 51.6688C103.604 52.6172 102.001 55.6633 101.176 60.2602Z"></path>
<path stroke-dasharray="0.01 0.01" stroke-linejoin="round" stroke-width="0.76655" stroke="#0A524B" d="M108.522 64.8437C109.622 63.9334 110.983 61.9238 110.983 61.9238"></path>
<path stroke-linejoin="round" stroke-width="0.383275" stroke="#0A524B" d="M108.666 67.1703C108.358 63.5699 106.355 53.7787 104.377 52.0332"></path>
<path stroke-linejoin="round" stroke-width="0.76655" stroke="#0A524B" fill="#63B1AA" d="M84.7004 122.529C86.9638 118.443 82.4233 114.593 79.8701 113.178C78.2288 114.167 75.1728 117.71 74.7861 121.523C74.4767 124.574 77.4463 128.214 78.9698 129.652C79.9369 128.98 82.4369 126.614 84.7004 122.529Z"></path>
<path stroke-dasharray="0.01 0.01" stroke-linejoin="round" stroke-width="0.76655" stroke="#0A524B" d="M79.2268 115.817C77.8913 116.324 75.9549 117.787 75.9549 117.787"></path>
<path stroke-linejoin="round" stroke-width="0.383275" stroke="#0A524B" d="M79.8402 113.57C78.9709 117.077 77.7086 126.991 79.0173 129.281"></path>
<path stroke-linejoin="round" stroke-width="0.76655" stroke="#0A524B" fill="#63B1AA" d="M127.895 84.1756C122.701 88.0083 118.618 83.5896 117.226 80.9012C125.029 70.638 133.359 72.4957 136.549 74.7074C135.829 76.2665 133.09 80.3428 127.895 84.1756Z"></path>
<path stroke-dasharray="0.01 0.01" stroke-linejoin="round" stroke-width="0.766551" stroke="#0A524B" d="M120.901 80.6315C121.187 82.4473 123.23 83.9043 123.23 83.9043"></path>
<path stroke-linejoin="round" stroke-width="0.383275" stroke="#0A524B" d="M117.644 80.6742C121.312 80.1051 134.256 77.1298 136.171 74.4816"></path>
<path stroke-linejoin="round" stroke-width="0.76655" stroke="#0A524B" fill="#63B1AA" d="M67.1247 91.2683C73.2778 89.316 75.7169 94.8154 76.1673 97.8091C65.4712 105.007 58.1855 100.561 55.8796 97.439C57.0642 96.1956 60.9716 93.2206 67.1247 91.2683Z"></path>
<path stroke-dasharray="0.01 0.01" stroke-linejoin="round" stroke-width="0.76655" stroke="#0A524B" d="M72.6011 96.8825C72.9159 95.0713 71.4519 93.0332 71.4519 93.0332"></path>
<path stroke-linejoin="round" stroke-width="0.383275" stroke="#0A524B" d="M75.6979 97.8936C72.0424 97.2492 58.8301 95.89 56.1631 97.7789"></path>
<path stroke-linejoin="round" stroke-width="0.76655" stroke="#0A524B" fill="#63B1AA" d="M115.446 78.5694C124.113 80.2246 131.19 71.0338 128.226 65.8745C125.792 64.5112 121.912 65.1232 118.189 68.8219C114.653 72.3333 114.639 76.6695 115.446 78.5694Z"></path>
<path stroke-linejoin="round" stroke-width="0.383275" stroke="#0A524B" d="M115.717 78.3002C118.616 76.1418 127.514 68.2038 127.956 65.6035"></path>
<path stroke-linejoin="round" stroke-width="0.76655" stroke="#0A524B" fill="#63B1AA" d="M77.1003 100.592C69.4306 96.2297 59.7668 102.646 60.908 108.486C62.7727 110.562 66.642 111.234 71.3598 108.934C75.8385 106.75 77.251 102.651 77.1003 100.592Z"></path>
<path stroke-linejoin="round" stroke-width="0.383275" stroke="#0A524B" d="M76.7559 100.76C73.3164 101.868 62.3335 106.511 61.076 108.83"></path>
<path stroke-linejoin="round" stroke-width="0.76655" stroke="#0A524B" fill="#63B1AA" d="M110.517 61.2849C106.011 63.0784 108.389 69.5537 110.141 72.5671C112.317 72.9165 117.309 72.1449 119.802 69.2333C121.796 66.9041 120.861 61.7312 120.144 59.436C118.813 59.305 115.023 59.4914 110.517 61.2849Z"></path>
<path stroke-linejoin="round" stroke-width="0.383275" stroke="#0A524B" d="M109.33 71.3578C112.045 68.9727 118.736 61.5494 118.968 58.9219"></path>
<path stroke-linejoin="round" stroke-width="0.766551" stroke="#0A524B" fill="#63B1AA" d="M76.1898 118.543C81.0332 118.298 80.8716 111.402 80.1853 107.985C78.2382 106.952 73.2639 106.072 69.9654 108.024C67.3266 109.586 66.5427 114.784 66.4806 117.187C67.6989 117.741 71.3464 118.787 76.1898 118.543Z"></path>
<path stroke-linejoin="round" stroke-width="0.383275" stroke="#0A524B" d="M80.5617 109.394C77.2229 110.776 68.4947 115.644 67.4283 118.057"></path>
<path stroke-linejoin="round" stroke-width="0.76655" stroke="#0A524B" fill="#63B1AA" d="M116.131 90.3724C121.853 97.0887 133.126 94.352 134.044 88.4734C132.999 85.8862 129.591 83.935 124.372 84.4883C119.417 85.0135 116.691 88.3859 116.131 90.3724Z"></path>
<path stroke-dasharray="0.01 0.01" stroke-linejoin="round" stroke-width="0.76655" stroke="#0A524B" d="M118.577 91.5779C119.039 92.2997 119.932 93.3613 119.932 93.3613"></path>
<path stroke-linejoin="round" stroke-width="0.383275" stroke="#0A524B" d="M116.512 90.3334C120.123 90.4645 132.031 89.8446 134.004 88.0938"></path>
<path stroke-linejoin="round" stroke-width="0.76655" stroke="#0A524B" fill="#63B1AA" d="M80.259 89.1987C77.0089 80.9955 65.4561 79.9497 62.6904 85.2179C62.8451 88.0039 65.4418 90.9502 70.5605 92.11C75.4199 93.2111 79.0879 90.8983 80.259 89.1987Z"></path>
<path stroke-dasharray="0.01 0.01" stroke-linejoin="round" stroke-width="0.76655" stroke="#0A524B" d="M78.3321 87.2698C78.1277 86.4375 77.6247 85.1445 77.6247 85.1445"></path>
<path stroke-linejoin="round" stroke-width="0.383275" stroke="#0A524B" d="M79.8851 89.1142C76.5093 87.8253 65.0377 84.5709 62.6057 85.5918"></path>
<path stroke-linejoin="round" stroke-width="0.766551" stroke="#0A524B" fill="#63B1AA" d="M106.171 87.1352C106.013 95.9574 116.274 101.369 120.854 97.5716C121.783 94.9407 120.521 91.2219 116.243 88.1812C112.182 85.2945 107.906 86.0173 106.171 87.1352Z"></path>
<path stroke-dasharray="0.01 0.01" stroke-linejoin="round" stroke-width="0.76655" stroke="#0A524B" d="M110.01 90.3339C109.344 91.2711 109.796 93.9434 109.796 93.9434"></path>
<path stroke-dasharray="0.01 0.01" stroke-linejoin="round" stroke-width="0.76655" stroke="#0A524B" d="M108.128 88.9947C107.996 89.8416 107.963 91.2285 107.963 91.2285"></path>
<path stroke-linejoin="round" stroke-width="0.383275" stroke="#0A524B" d="M106.484 87.3558C109.103 89.8448 118.438 97.2639 121.076 97.2578"></path>
<path stroke-linejoin="round" stroke-width="0.76655" stroke="#0A524B" fill="#63B1AA" d="M88.6412 95.4815C91.6363 87.1817 83.6703 78.7495 78.1098 80.8668C76.3812 83.0572 76.3768 86.9844 79.4452 91.2425C82.3581 95.2849 86.6383 95.9799 88.6412 95.4815Z"></path>
<path stroke-dasharray="0.01 0.01" stroke-linejoin="round" stroke-width="0.76655" stroke="#0A524B" d="M86.0391 91.2126C86.972 90.5404 87.4064 87.8652 87.4064 87.8652"></path>
<path stroke-dasharray="0.01 0.01" stroke-linejoin="round" stroke-width="0.76655" stroke="#0A524B" d="M87.3893 93.0846C87.7871 92.3255 88.2661 91.0234 88.2661 91.0234"></path>
<path stroke-linejoin="round" stroke-width="0.383275" stroke="#0A524B" d="M88.4172 95.1696C86.7404 91.9686 80.2974 81.9349 77.7988 81.0898"></path>
<path stroke-linejoin="round" stroke-width="0.76655" stroke="#0A524B" fill="#63B1AA" d="M117.219 78.5448C112.874 76.8326 109.648 81.8359 108.578 84.5516C109.772 86.0502 113.682 88.6187 117.513 88.5056C120.578 88.4151 123.801 84.9968 125.029 83.2989C124.236 82.4276 121.564 80.257 117.219 78.5448Z"></path>
<path stroke-linejoin="round" stroke-width="0.383275" stroke="#0A524B" d="M108.97 84.5309C112.561 84.9361 122.555 84.8966 124.655 83.3008"></path>
<path stroke-linejoin="round" stroke-width="0.76655" stroke="#0A524B" fill="#63B1AA" d="M75.4133 100.046C78.9739 103.069 83.6419 99.3735 85.5308 97.1482C84.8834 95.3444 82.0107 91.6518 78.3479 90.5231C75.4177 89.6202 71.2651 91.8164 69.555 93.0274C70.0242 94.1078 71.8528 97.0241 75.4133 100.046Z"></path>
<path stroke-linejoin="round" stroke-width="0.383275" stroke="#0A524B" d="M85.1522 97.0396C81.8841 95.4978 72.4116 92.3115 69.909 93.1445"></path>
<path stroke-linejoin="round" stroke-width="0.76655" stroke="#0A524B" fill="#63B1AA" d="M113.999 79.9397C111.228 84.8676 105.708 84.0528 103.295 83.0294C105.432 72.7843 113.476 69.9311 117.23 69.7851C117.308 71.1167 116.771 75.0118 113.999 79.9397Z"></path>
<path stroke-linejoin="round" stroke-width="0.383275" stroke="#0A524B" d="M103.553 82.6839C106.471 80.5525 116.334 72.4206 116.801 69.8246"></path>
<path stroke-linejoin="round" stroke-width="0.76655" stroke="#0A524B" fill="#63B1AA" d="M78.9111 99.7621C83.124 95.9915 88.0857 98.5433 90.04 100.29C84.7125 109.299 76.1785 109.405 72.5775 108.332C72.9333 107.046 74.6982 103.533 78.9111 99.7621Z"></path>
<path stroke-linejoin="round" stroke-width="0.383275" stroke="#0A524B" d="M89.6842 100.533C86.2346 101.609 74.2755 106.125 72.9966 108.431"></path>
<path stroke-linejoin="round" stroke-width="0.76655" stroke="#0A524B" fill="#63B1AA" d="M102.53 74.0469C107.549 66.7896 102.005 56.6 96.0882 57.2243C93.8568 58.8997 92.8478 62.6951 94.7248 67.5965C96.5066 72.2495 100.467 74.0164 102.53 74.0469Z"></path>
<path stroke-dasharray="0.01 0.01" stroke-linejoin="round" stroke-width="0.76655" stroke="#0A524B" d="M101.106 69.2534C102.18 68.8422 103.284 66.3672 103.284 66.3672"></path>
<path stroke-dasharray="0.01 0.01" stroke-linejoin="round" stroke-width="0.76655" stroke="#0A524B" d="M101.932 71.4108C102.511 70.7788 103.307 69.6426 103.307 69.6426"></path>
<path stroke-linejoin="round" stroke-width="0.383275" stroke="#0A524B" d="M102.393 73.6889C101.591 70.1655 97.9295 58.8175 95.7302 57.3613"></path>
<path stroke-linejoin="round" stroke-width="0.76655" stroke="#0A524B" fill="#63B1AA" d="M87.865 109.044C80.7736 114.295 82.7343 125.728 88.5365 127.046C91.189 126.18 93.3684 122.913 93.1727 117.668C92.987 112.689 89.8087 109.739 87.865 109.044Z"></path>
<path stroke-dasharray="0.01 0.01" stroke-linejoin="round" stroke-width="0.76655" stroke="#0A524B" d="M87.6679 114.039C86.5188 114.082 84.6752 116.068 84.6752 116.068"></path>
<path stroke-dasharray="0.01 0.01" stroke-linejoin="round" stroke-width="0.76655" stroke="#0A524B" d="M87.5818 111.731C86.8301 112.142 85.71 112.961 85.71 112.961"></path>
<path stroke-linejoin="round" stroke-width="0.383275" stroke="#0A524B" d="M87.8794 109.429C87.5021 113.023 87.3075 124.945 88.9196 127.033"></path>
<path stroke-linejoin="round" stroke-width="0.76655" stroke="#0A524B" fill="#63B1AA" d="M94.3765 83.8656C96.3171 75.258 87.3649 67.881 82.1106 70.6729C80.6677 73.0611 81.1512 76.9585 84.725 80.8023C88.1177 84.4513 92.4511 84.6091 94.3765 83.8656Z"></path>
<path stroke-dasharray="0.01 0.01" stroke-linejoin="round" stroke-width="0.76655" stroke="#0A524B" d="M91.2644 79.9561C92.1065 79.1732 92.2051 76.4648 92.2051 76.4648"></path>
<path stroke-dasharray="0.01 0.01" stroke-linejoin="round" stroke-width="0.76655" stroke="#0A524B" d="M89.4574 77.4503C90.0385 76.3867 90.3389 75.584 90.3981 73.959"></path>
<path stroke-dasharray="0.01 0.01" stroke-linejoin="round" stroke-width="0.76655" stroke="#0A524B" d="M92.837 81.6483C93.1374 80.8456 93.4509 79.4941 93.4509 79.4941"></path>
<path stroke-linejoin="round" stroke-width="0.383275" stroke="#0A524B" d="M94.1155 83.5866C92.054 80.6188 84.4142 71.4635 81.8299 70.9355"></path>
<path stroke-linejoin="round" stroke-width="0.76655" stroke="#0A524B" fill="#63B1AA" d="M98.7519 102.376C94.1385 109.898 100.233 119.768 106.107 118.82C108.243 117.025 109.042 113.18 106.899 108.389C104.865 103.841 100.814 102.293 98.7519 102.376Z"></path>
<path stroke-dasharray="0.01 0.01" stroke-linejoin="round" stroke-width="0.76655" stroke="#0A524B" d="M100.436 107.081C99.3868 107.55 98.4198 110.082 98.4198 110.082"></path>
<path stroke-dasharray="0.01 0.01" stroke-linejoin="round" stroke-width="0.76655" stroke="#0A524B" d="M101.338 110.038C100.445 110.857 99.902 111.52 99.3218 113.039"></path>
<path stroke-dasharray="0.01 0.01" stroke-linejoin="round" stroke-width="0.76655" stroke="#0A524B" d="M99.4935 104.973C98.9502 105.636 98.2175 106.814 98.2175 106.814"></path>
<path stroke-linejoin="round" stroke-width="0.383275" stroke="#0A524B" d="M98.9085 102.726C99.9025 106.2 104.181 117.331 106.457 118.664"></path>
<path stroke-linejoin="round" stroke-width="0.766551" stroke="#0A524B" fill="#63B1AA" d="M100.726 80.7531C109.441 79.3717 112.983 68.3257 108.445 64.4769C105.693 64.0198 102.251 65.9108 100.001 70.653C97.8663 75.1549 99.3228 79.2393 100.726 80.7531Z"></path>
<path stroke-linejoin="round" stroke-width="0.383275" stroke="#0A524B" d="M100.89 80.4066C102.885 77.3935 108.564 66.9088 108.099 64.3125"></path>
<path stroke-linejoin="round" stroke-width="0.76655" stroke="#0A524B" fill="#63B1AA" d="M91.7375 103.275C83.0429 101.772 76.1272 111.085 79.1807 116.192C81.6387 117.512 85.5067 116.832 89.1652 113.069C92.6384 109.497 92.5772 105.161 91.7375 103.275Z"></path>
<path stroke-linejoin="round" stroke-width="0.383275" stroke="#0A524B" d="M91.4704 103.552C88.6105 105.761 79.8525 113.853 79.4556 116.461"></path>
<path stroke-linejoin="round" stroke-width="0.76655" stroke="#0A524B" fill="#63B1AA" d="M89.1074 75.9011C87.5022 80.4271 93.6163 83.0638 96.874 83.8164C98.512 82.4535 101.153 78.2618 100.679 74.4585C100.3 71.4158 96.0316 68.6005 93.945 67.5732C93.0013 68.4633 90.7127 71.3751 89.1074 75.9011Z"></path>
<path stroke-linejoin="round" stroke-width="0.383275" stroke="#0A524B" d="M95.7765 83.5593C95.8411 79.9463 94.8587 70.0007 93.0718 68.0605"></path>
<path stroke-linejoin="round" stroke-width="0.76655" stroke="#0A524B" fill="#63B1AA" d="M101.17 111.614C104.149 107.848 99.2127 103.38 96.3719 101.617C94.3817 102.378 90.5296 105.494 89.7516 109.247C89.1291 112.249 92.261 116.291 93.9048 117.937C95.0851 117.398 98.1906 115.381 101.17 111.614Z"></path>
<path stroke-linejoin="round" stroke-width="0.383275" stroke="#0A524B" d="M97.327 102.219C96.1005 105.618 93.8223 115.349 94.8878 117.762"></path>
<path stroke-linejoin="round" stroke-width="0.766551" stroke="#0A524B" fill="#FFDDCA" d="M96.9502 94.5611C92.5376 94.8107 92.9647 91.3435 93.7298 89.5788C98.9803 84.56 105.451 88.7377 106.944 92.6154C103.415 96.8155 98.087 96.4368 96.9502 94.5611Z"></path>
<path stroke-linejoin="round" stroke-width="0.766551" stroke="#0A524B" fill="#FFDDCA" d="M99.7648 91.4282C104.022 92.6153 102.499 95.7593 101.206 97.1829C94.6172 100.24 89.8397 94.1981 89.6773 90.046C94.3725 87.2089 99.2938 89.286 99.7648 91.4282Z"></path>
<path fill="#FFDDCA" d="M93.9122 91.4239C96.7937 91.8403 98.6689 90.3139 99.2464 89.4987C102.942 84.2813 98.1205 82.4463 95.2478 82.181C90.4128 82.5606 91.5662 85.3933 92.7473 86.7622C91.935 88.1426 91.0307 91.0075 93.9122 91.4239Z"></path>
<path fill="#FFDDCA" d="M111.599 93.081C109.441 95.2856 107.656 93.8593 107.033 92.8705C101.307 91.1444 108.05 85.8283 109.788 86.5287C111.525 87.2291 114.295 90.3254 111.599 93.081Z"></path>
<path stroke-linejoin="round" stroke-width="0.76655" stroke="#0A524B" d="M93.9122 91.4239C96.7937 91.8403 98.6689 90.3139 99.2464 89.4987C102.942 84.2813 98.1205 82.4463 95.2478 82.181C90.4128 82.5606 91.5662 85.3933 92.7473 86.7622C91.935 88.1426 91.0307 91.0075 93.9122 91.4239Z"></path>
<path stroke-linejoin="round" stroke-width="0.76655" stroke="#0A524B" d="M111.599 93.081C109.441 95.2856 107.656 93.8593 107.033 92.8705C101.307 91.1444 108.05 85.8283 109.788 86.5287C111.525 87.2291 114.295 90.3254 111.599 93.081Z"></path>
<path fill="#FFDDCA" d="M101.628 95.3766C99.0352 94.053 96.7679 94.8928 95.9583 95.4782C90.7773 99.2246 94.7491 102.517 97.3826 103.695C102.082 104.895 101.904 101.841 101.227 100.165C102.441 99.1202 104.222 96.7002 101.628 95.3766Z"></path>
<path fill="#FFDDCA" d="M85.422 88.103C88.1749 86.7121 89.405 88.6382 89.6759 89.775C94.5389 93.2558 86.4411 96.1126 85.0226 94.8892C83.604 93.6659 81.9808 89.8416 85.422 88.103Z"></path>
<path stroke-linejoin="round" stroke-width="0.76655" stroke="#0A524B" d="M101.628 95.3766C99.0352 94.053 96.7679 94.8928 95.9583 95.4782C90.7773 99.2246 94.7491 102.517 97.3826 103.695C102.082 104.895 101.904 101.841 101.227 100.165C102.441 99.1202 104.222 96.7002 101.628 95.3766Z"></path>
<path stroke-linejoin="round" stroke-width="0.76655" stroke="#0A524B" d="M85.422 88.103C88.1749 86.7121 89.405 88.6382 89.6759 89.775C94.5389 93.2558 86.4411 96.1126 85.0226 94.8892C83.604 93.6659 81.9808 89.8416 85.422 88.103Z"></path>
<path stroke-linejoin="round" stroke-width="0.766551" stroke="#0A524B" fill="#0A524B" d="M98.7754 89.2992C95.4615 85.8665 98.7088 84.0728 100.747 83.605C110.137 85.303 105.973 90.5513 102.716 92.9633C97.8139 94.9103 98.0464 91.3318 98.7754 89.2992Z"></path>
<path stroke-linejoin="round" stroke-width="0.766551" stroke="#0A524B" fill="#0A524B" d="M96.3394 95.8208C98.3689 100.139 94.7166 100.789 92.6367 100.575C84.2961 95.9386 89.9309 92.3141 93.7909 91.0813C99.0594 90.8198 97.6851 94.132 96.3394 95.8208Z"></path>
<path stroke-linejoin="round" stroke-width="0.766551" stroke="#0A524B" fill="#FFDDCA" d="M103.767 80.8462C101.415 77.2412 98.9232 79.2348 97.9711 80.6822C97.0397 87.2274 104.658 87.5178 108.584 86.8449C109.863 82.0507 105.906 80.8482 103.767 80.8462Z"></path>
<path stroke-linejoin="round" stroke-width="0.766551" stroke="#0A524B" fill="#FFDDCA" d="M88.8879 102.211C89.9513 106.382 92.9533 105.298 94.3214 104.235C97.3143 98.3406 90.1966 95.6082 86.2636 94.9789C83.5064 99.1041 86.8643 101.519 88.8879 102.211Z"></path>
</g>
</svg>
